<?xml version="1.0" encoding="UTF-8"?>
<!-- Generator: Adobe Illustrator 24.2.2, SVG Export Plug-In . SVG Version: 6.00 Build 0)  -->
<svg xmlns="http://www.w3.org/2000/svg" xmlns:xlink="http://www.w3.org/1999/xlink" version="1.1" id="Layer_1" x="0px" y="0px" viewBox="0 0 304 304" style="enable-background:new 0 0 304 304;" xml:space="preserve">
<style type="text/css">
	.st0{fill:#18448F;}
	.st1{fill:#FFFFFF;}
</style>
<rect class="st0" width="304" height="304"></rect>
<g>
	<path class="st1" d="M79.4,108.8c0-12,9.2-21.7,20.6-21.7c11.4,0,20.6,9.7,20.6,21.7v4.5h10.8v-4.5c0-12,9.2-21.7,20.6-21.7   c11.4,0,20.6,9.7,20.6,21.7v4.5h10.8v-4.5c0-12,9.2-21.7,20.6-21.7c11.4,0,20.6,9.7,20.6,21.7v4.5H235V81.2h-166v32.1h10.5V108.8   L79.4,108.8z M235,67.3h-166v7.1h166V67.3L235,67.3z M73.5,162.3h-1.2c0.7,3.7,1.6,7.4,2.6,11h9.3L73.5,162.3L73.5,162.3z    M168.9,124.8c-10.7,0-16.6,6.1-16.9,6.4c-0.3-0.3-6.2-6.4-16.9-6.4c-15.9,0-38,19.7-54.7,19.7c-3.9,0-7.9-1.5-11.1-3.2   c0.3,3.7,0.7,7.4,1.2,11.1c3.2,1.2,7.3,2.2,12.5,2.2c1.7,0,3.5-0.3,5.4-0.8l2,2.2v12.4l10,10.4v-10.9l9.4,10.5v10.2l11.9,12.4   v-10.8l9.4,10.5v10.1l11.3,11.7v-9.3l9.4,10.5v-17.6h-5l-10.5-9.4h11.3l-11.5-11.9h-9.1l-10.5-9.4h10.4l-11.8-12.2h-8.3l-10.5-9.4   h9.6l-4.6-4.8c2.7-1.3,5.5-2.7,8.3-4.1v1.3l11.9,12.4v-10.8l9.4,10.5V168l11.3,11.7v-9.3l9.4,10.5v-17.6h-5l-10.5-9.4h11.3   l-11.5-11.9h-9.1l-4.2-3.7c5.1-2.3,9.6-3.8,13.2-3.8c10.3,0,15.7,10.7,15.7,10.7s0,0,0,0c0,0,0,0,0,0s5.5-10.7,15.7-10.7   c12.8,0,39,20.3,53.2,20.3c5.1,0,9.1-0.9,12.2-2.1c0.5-3.6,0.9-7.3,1.2-11c-3.2,1.6-7,3.1-10.8,3.1   C207,144.5,184.8,124.8,168.9,124.8L168.9,124.8z M137,238.9h10.5l-12.7-13.2h-9.9l-10.5-9.4h11.3l-11.5-11.9H105L94.6,195H105   l-11.8-12.3h-8.3l-10-9c1.5,5.5,3.2,10.8,5.2,16l7.6,8.4v8.4c0.7,1.4,1.5,2.7,2.2,4.1l9.7,10.1V210l9.4,10.4v10.1l11.3,11.7v-9.3   l9.4,10.5v8.6l11.9,12.4v-9.4l10.4,10.4v-17h-4.7L137,238.9L137,238.9z M203.4,183c-6.9,0-12.6,5.6-12.6,12.6   c0,6.9,5.6,12.6,12.6,12.6c6.9,0,12.6-5.6,12.6-12.6C216,188.6,210.4,183,203.4,183L203.4,183z M175.5,151.9   c-6.9,0-12.6,5.6-12.6,12.6c0,6.9,5.6,12.6,12.6,12.6c6.9,0,12.6-5.6,12.6-12.6C188.1,157.5,182.5,151.9,175.5,151.9L175.5,151.9z    M175.5,214.1c-6.9,0-12.6,5.6-12.6,12.6c0,6.9,5.6,12.6,12.6,12.6c6.9,0,12.6-5.6,12.6-12.6C188.1,219.7,182.5,214.1,175.5,214.1   L175.5,214.1z M243.2,120.9c0,67.7-32.4,125.3-91.3,162.3c-58.9-37-91.3-94.6-91.3-162.3V60.4h182.5V120.9L243.2,120.9z M55.2,54.9   v66c0,35.2,8.5,67.9,25.3,97c16.4,28.4,40,52.3,70,70.9l1.4,0.9l1.4-0.9c30.1-18.6,53.6-42.5,70-70.9c16.8-29.1,25.3-61.7,25.3-97   v-66H55.2L55.2,54.9z"></path>
</g>
</svg>
