<?xml version="1.0" encoding="utf-8"?>
<svg version="1.1" xmlns="http://www.w3.org/2000/svg" viewBox="0 0 507.8 56.3" root="">
<g fill="#1A4689">
	<path d="M42,28c0.9-0.9,1.7-1.9,2.4-3c0.6-1.1,1.1-2.3,1.5-3.5c0.3-1.2,0.5-2.5,0.5-3.7c0-3.2-0.9-6.1-2.8-8.5
		c-1.8-2.4-4.4-3.9-7.6-4.5c-2.1-0.3-4.3-0.5-6.4-0.5H0v52.1h28.8c1.2,0,2.4,0,3.6-0.1c1.2-0.1,2.5-0.2,3.6-0.4
		c1.2-0.2,2.3-0.5,3.4-1c1.1-0.5,2-1.1,2.9-1.9c1.4-1.3,2.4-2.9,3-4.6c0.6-1.8,0.9-3.6,0.9-5.6c0-2.8-0.6-5.2-1.8-7.3
		c-1.2-2-3.1-3.7-5.6-4.8l-0.7-0.3l0.7-0.3C40,29.5,41.1,28.9,42,28z M33.9,43.8c-0.4,1-1.1,1.8-1.9,2.5c-0.9,0.7-1.9,1.1-2.9,1.2
		c-0.9,0.1-1.9,0.1-3,0.1H10.6V34.6h15.8c1,0,2,0.1,3,0.2c1,0.1,1.9,0.4,2.6,0.9c0.8,0.4,1.4,1.1,1.9,1.9c0.5,0.8,0.7,1.9,0.7,3.1
		C34.6,41.8,34.3,42.8,33.9,43.8z M33.9,22.1c-0.4,1-1.1,1.8-1.9,2.5c-0.9,0.7-1.9,1.1-2.9,1.2c-0.9,0.1-1.9,0.1-3,0.1H10.6V13h15.8
		c1,0,2,0.1,3,0.2c1,0.1,1.9,0.4,2.6,0.9c0.8,0.5,1.4,1.1,1.9,1.9c0.5,0.8,0.7,1.9,0.7,3.1C34.6,20.1,34.3,21.1,33.9,22.1z"/>
	<path d="M114.8,27.2c-1-3.2-2.7-5.5-4.9-6.7c-2.3-1.2-5-1.9-8.2-2h0c-0.7,0-1.5,0-2.2,0c-0.7,0-1.4,0-2.2,0H79.7v7.6
		h17.5c1.2,0,2.4,0.1,3.4,0.2c1,0.1,2,0.4,2.7,0.9c0.8,0.5,1.4,1.2,1.7,2c0.4,0.8,0.6,2,0.6,3.4v1H92.4c-0.8,0-1.8,0-2.8,0
		c-1,0-2,0.1-3,0.2c-1,0.1-2,0.3-2.9,0.6c-0.9,0.3-1.7,0.7-2.3,1.2c-1.5,1.1-2.6,2.6-3.3,4.3c-0.7,1.7-1.1,3.5-1.1,5.3
		c0,2.3,0.6,4.5,1.8,6.5c1.2,2,3,3.3,5.3,3.9c1.3,0.4,2.7,0.6,4.2,0.6c1.4,0,2.9,0,4.3,0h23.1V35c0-1.4,0-2.7-0.1-3.9
		C115.4,29.8,115.2,28.5,114.8,27.2z M105.7,48.7H93.1c-0.7,0-1.3,0-2-0.1c-0.7-0.1-1.4-0.2-1.9-0.4c-0.6-0.2-1.1-0.6-1.5-1.1
		c-0.4-0.5-0.6-1.2-0.6-2.1c0-1.3,0.4-2.3,1.3-3c0.8-0.6,1.8-0.9,3-0.9h14.3V48.7z"/>
	<path d="M143.8,18.5H123v37.8h9.9V26h9.5c2,0,3.5,0.4,4.4,1.3c0.9,0.9,1.4,2.4,1.4,4.4v24.6h9.9V33c0-5-1.2-8.7-3.4-11
		C152.4,19.6,148.8,18.5,143.8,18.5z"/>
	<path d="M192.1,18.5h-10.3c-2.9,0-5.6,0.4-7.9,1.3c-2.3,0.9-4.4,2.5-6.2,4.8c-1.5,1.9-2.5,3.8-3.1,5.8
		c-0.6,2-0.9,4.2-0.9,6.6c0,3.8,0.8,7.3,2.3,10.4c1.5,3.1,4.1,5.5,7.7,7.2c1.7,0.8,3.4,1.3,5,1.5c1.6,0.2,3.4,0.2,5.3,0.2H202V4.2
		h-9.9V18.5z M192.1,48.7h-8c-3.5,0-6.1-1.1-7.8-3.4c-1.7-2.2-2.5-5-2.5-8.2c0-3.2,0.9-5.9,2.6-8c1.7-2.1,4.3-3.2,7.7-3.2h8V48.7z"
		/>
	<path d="M223.7,7.7c-2.3,2.3-3.4,6-3.4,11v37.5h10.5V33.8h28.8v-8.2h-28.8v-7c0-2,0.5-3.5,1.4-4.4
		c0.9-0.9,2.4-1.3,4.4-1.3h26.9V4.2h-28.8C229.7,4.2,226,5.4,223.7,7.7z"/>
	<rect x="267.2" y="4.2" width="9.9" height="8.7"/>
	<rect x="267.2" y="18.5" width="9.9" height="37.8"/>
	<path d="M305.3,18.5h-20.8v37.8h9.9V26h9.5c2,0,3.5,0.4,4.4,1.3c0.9,0.9,1.4,2.4,1.4,4.4v24.6h9.9V33
		c0-5-1.2-8.7-3.4-11C314,19.6,310.3,18.5,305.3,18.5z"/>
	<path d="M363.1,27.2c-1-3.2-2.7-5.5-4.9-6.7c-2.3-1.2-5-1.9-8.2-2h0c-0.7,0-1.5,0-2.2,0c-0.7,0-1.4,0-2.2,0h-17.5v7.6
		h17.5c1.2,0,2.4,0.1,3.4,0.2c1,0.1,2,0.4,2.7,0.9c0.8,0.5,1.4,1.2,1.7,2c0.4,0.8,0.6,2,0.6,3.4v1h-13.3c-0.8,0-1.8,0-2.8,0
		c-1,0-2,0.1-3,0.2c-1,0.1-2,0.3-2.9,0.6c-0.9,0.3-1.7,0.7-2.3,1.2c-1.5,1.1-2.6,2.6-3.3,4.3c-0.7,1.7-1.1,3.5-1.1,5.3
		c0,2.3,0.6,4.5,1.8,6.5c1.2,2,3,3.3,5.3,3.9c1.3,0.4,2.7,0.6,4.2,0.6c1.4,0,2.9,0,4.3,0H364V35c0-1.4,0-2.7-0.1-3.9
		C363.8,29.8,363.5,28.5,363.1,27.2z M354.1,48.7h-12.6c-0.7,0-1.3,0-2-0.1c-0.7-0.1-1.4-0.2-1.9-0.4c-0.6-0.2-1.1-0.6-1.5-1.1
		c-0.4-0.5-0.6-1.2-0.6-2.1c0-1.3,0.4-2.3,1.3-3c0.8-0.6,1.8-0.9,3-0.9h14.3V48.7z"/>
	<path d="M392.1,18.5h-20.8v37.8h9.9V26h9.5c2,0,3.5,0.4,4.4,1.3c0.9,0.9,1.4,2.4,1.4,4.4v24.6h9.9V33
		c0-5-1.2-8.7-3.4-11C400.8,19.6,397.1,18.5,392.1,18.5z"/>
	<path d="M424.5,19.1c-2.4,0.4-4.7,1.4-6.6,3.1c-2.2,1.9-3.7,4.2-4.5,6.9c-0.9,2.7-1.3,5.5-1.3,8.3
		c0,2.6,0.4,5.1,1.1,7.4c0.7,2.3,2,4.4,3.8,6.4c1,1.2,2.1,2.1,3.2,2.8c1.1,0.7,2.3,1.2,3.6,1.5c1.2,0.4,2.5,0.6,3.9,0.7
		c1.3,0.1,2.8,0.2,4.3,0.2h14.1v-7.6h-11.1c-1.4,0-2.7-0.1-3.9-0.2c-1.2-0.1-2.5-0.5-3.8-1.2c-2-1-3.3-2.4-4.1-4.2
		c-0.7-1.7-1.1-3.7-1.1-5.7c0-4,0.9-7,2.8-8.7c1.8-1.8,4.8-2.7,8.8-2.7h12.3v-7.6H432C429.5,18.5,427,18.7,424.5,19.1z"/>
	<path d="M473.5,41.2c0.3,0,0.5,0,0.8,0l0.1,0h14.6l0-12.1c-0.1-2.2-0.7-4.2-1.8-6.1c-1.2-2-3-3.3-5.3-3.9
		c-1.3-0.4-2.7-0.6-4.2-0.6c-1.4,0-2.9,0-4.3,0l-6.8,0c-1.2,0-2.3,0-3.5,0c-1.4,0-2.8,0.2-4.2,0.6c-2.3,0.6-4.1,1.9-5.3,3.9
		c-1.2,2-1.8,4.1-1.8,6.3l0,0.2l0,10.2c0,1.4,0,2.7,0.1,3.9c0.1,1.2,0.3,2.5,0.7,3.8c1,3.2,2.7,5.5,4.9,6.7c2.3,1.2,5,1.9,8.2,2h0
		c0.7,0,1.5,0,2.2,0c0.7,0,1.4,0,2.2,0h17.5v-7.6h-17.5c-1.2,0-2.4-0.1-3.4-0.2c-1-0.1-2-0.4-2.7-0.9c-0.8-0.5-1.4-1.2-1.7-2
		c-0.4-0.9-0.6-2-0.6-3.4v-1H473.5z M461.6,33.6v-3.9c0-0.9,0.2-1.6,0.6-2.1c0.4-0.5,0.9-0.9,1.5-1.1c0.6-0.2,1.2-0.4,2-0.4
		c0.7-0.1,1.3-0.1,2-0.1l6.8,0c0.6,0,1.2,0,1.7,0.1c0.7,0.1,1.4,0.2,1.9,0.4c0.6,0.2,1.1,0.6,1.5,1.1c0.3,0.5,0.5,1.1,0.6,1.9l0,0
		l0,0.2v3.9H461.6z"/>
	<path d="M55.3,21.9c-2.3,2.3-3.4,6-3.4,11v23.3h9.9V31.8c0-2,0.5-3.5,1.4-4.4c0.9-0.9,2.4-1.3,4.4-1.3H76v-7.7h-9.8
		C61.3,18.4,57.6,19.6,55.3,21.9z"/>
	<path d="M498.4,0c-5.2,0-9.4,4.2-9.4,9.4c0,5.2,4.2,9.4,9.4,9.4c5.2,0,9.4-4.2,9.4-9.4C507.8,4.2,503.6,0,498.4,0z
		 M498.4,17.8c-4.6,0-8.4-3.8-8.4-8.4c0-4.6,3.8-8.4,8.4-8.4c4.6,0,8.4,3.8,8.4,8.4C506.8,14.1,503,17.8,498.4,17.8z"/>
	<path d="M502.5,13.6c-0.1-0.2-0.1-0.5-0.1-0.8l0-1.3c0-0.6-0.1-1-0.3-1.2c-0.2-0.3-0.5-0.5-0.9-0.6
		c0.4-0.2,0.8-0.5,1-0.9c0.2-0.4,0.4-0.9,0.4-1.5c0-1.1-0.5-1.9-1.4-2.3c-0.5-0.2-1.1-0.3-1.8-0.3h-4.5v9.9h1.3v-4.2h3
		c0.5,0,0.9,0.1,1.2,0.2c0.4,0.2,0.7,0.7,0.7,1.3l0.1,1.7c0,0.4,0,0.6,0.1,0.8c0,0.1,0.1,0.2,0.1,0.3h1.6v-0.2
		C502.7,14.1,502.6,13.9,502.5,13.6z M500.6,8.6c-0.4,0.2-0.8,0.4-1.5,0.4h-3V5.6h3.2c0.4,0,0.8,0.1,1.1,0.2
		c0.5,0.3,0.7,0.7,0.7,1.4C501.2,7.9,501,8.4,500.6,8.6z"/>
</g>
</svg>
